<svg width="20" height="20" viewBox="0 0 20 20" fill="none" xmlns="http://www.w3.org/2000/svg">
<path fill-rule="evenodd" clip-rule="evenodd" d="M17.9385 10.0388C17.9385 10.1247 17.8661 10.1971 17.7801 10.1971H17.5938H16.2367H3.05906H1.70195H1.51557C1.42962 10.1971 1.35724 10.1247 1.35724 10.0388V7.52904C1.35724 7.44218 1.42962 7.3698 1.51557 7.3698H8.96885H14.5312H17.7801C17.8661 7.3698 17.9385 7.44218 17.9385 7.52904V10.0388ZM16.2367 18.5732C16.2367 18.6094 16.2032 18.6429 16.167 18.6429H10.326V11.5542H16.2367V18.5732ZM8.96885 18.6429H3.12873C3.09163 18.6429 3.05906 18.6094 3.05906 18.5732V11.5542H8.96885V18.6429ZM6.67894 1.35687C7.9112 1.35687 8.91276 2.35933 8.91276 3.59069V5.8245H6.67894C5.44759 5.8245 4.44513 4.82204 4.44513 3.59069C4.44513 2.35933 5.44759 1.35687 6.67894 1.35687ZM10.326 4.93423C10.326 3.85125 11.2072 2.97094 12.2902 2.97094C13.374 2.97094 14.2544 3.85125 14.2544 4.93423C14.2544 5.33503 14.1295 5.70326 13.9214 6.01268H10.326V4.93423ZM17.7801 6.01268H15.4188C15.5382 5.67431 15.6115 5.31422 15.6115 4.93423C15.6115 3.10303 14.1214 1.61291 12.2902 1.61291C11.4361 1.61291 10.6643 1.94677 10.0754 2.47875C9.60398 1.04474 8.26858 -0.000244141 6.67894 -0.000244141C4.69936 -0.000244141 3.08801 1.61111 3.08801 3.59069C3.08801 4.53071 3.46077 5.37665 4.05609 6.01268H1.51557C0.679585 6.01268 0.00012207 6.69305 0.00012207 7.52904V10.0388C0.00012207 10.8748 0.679585 11.5542 1.51557 11.5542H1.70195V18.5732C1.70195 19.3604 2.3416 20 3.12873 20H16.167C16.9541 20 17.5938 19.3604 17.5938 18.5732V11.5542H17.7801C18.6161 11.5542 19.2956 10.8748 19.2956 10.0388V7.52904C19.2956 6.69305 18.6161 6.01268 17.7801 6.01268Z" fill="white"/>
</svg>
