<svg width="111" height="30" viewBox="0 0 111 30" fill="none" xmlns="http://www.w3.org/2000/svg">
<path d="M15.2628 28.0656C13.5931 28.3589 11.8939 28.4468 10.1362 28.6809L4.77506 12.9787V29.3548C3.10529 29.5305 1.58197 29.7649 0 29.9993V0.000854492H4.45301L10.5463 17.0217V0.000854492H15.2628V28.0656ZM24.4909 10.9866C26.3073 10.9866 29.0903 10.8987 30.7601 10.8987V15.5858C28.6801 15.5858 26.2487 15.5858 24.4909 15.6737V22.6462C27.2448 22.4704 29.9985 22.2359 32.7814 22.148V26.6592L19.8035 27.6847V0.000854492H32.7814V4.68811H24.4909V10.9866ZM50.2121 4.68822H45.3491V26.2495C43.7672 26.2495 42.1852 26.2495 40.6621 26.308V4.68822H35.7991V0.000854492H50.2123L50.2121 4.68822ZM57.8288 10.6644H64.2446V15.3516H57.8288V25.9859H53.2292V0.000854492H66.3246V4.68811H57.8288V10.6644ZM73.9413 21.8844C76.6072 21.9429 79.3022 22.1483 81.9097 22.2945V26.9232C77.7205 26.6594 73.5312 26.3961 69.2541 26.308V0.000854492H73.9413V21.8844ZM85.8645 27.2455C87.3585 27.3335 88.9405 27.4214 90.4638 27.5969V0.000854492H85.8645V27.2455ZM111 0.000854492L105.053 14.2677L111 29.9993C109.242 29.7649 107.484 29.4426 105.727 29.1496L102.358 20.4784L98.9306 28.4468C97.2311 28.1536 95.5906 28.0656 93.8918 27.8313L99.9266 14.0918L94.4775 0.000854492H99.5161L102.592 7.88131L105.873 0.000854492H111V0.000854492Z" fill="#B9090B"/>
</svg>
